<mxfile host="app.diagrams.net" modified="2023-11-06T02:44:01.176Z" agent="Mozilla/5.0 (Windows NT 10.0; Win64; x64) AppleWebKit/537.36 (KHTML, like Gecko) Chrome/118.0.0.0 Safari/537.36" etag="FxQXVO6RUMZ20DjjMBUb" version="22.0.8" type="github">
  <diagram name="페이지-1" id="w5eRe_hK1SwU2AclQLPh">
    <mxGraphModel dx="1954" dy="1146" grid="1" gridSize="10" guides="1" tooltips="1" connect="1" arrows="1" fold="1" page="1" pageScale="1" pageWidth="827" pageHeight="1169" math="0" shadow="0">
      <root>
        <mxCell id="0" />
        <mxCell id="1" parent="0" />
        <mxCell id="Q0ojlO1fTkYzOGZtwpxG-5" style="edgeStyle=orthogonalEdgeStyle;rounded=0;orthogonalLoop=1;jettySize=auto;html=1;" edge="1" parent="1">
          <mxGeometry relative="1" as="geometry">
            <mxPoint x="120.80000000000018" y="329.2" as="targetPoint" />
            <mxPoint x="120" y="419.99999999999994" as="sourcePoint" />
          </mxGeometry>
        </mxCell>
        <mxCell id="Q0ojlO1fTkYzOGZtwpxG-8" value="" style="image;sketch=0;aspect=fixed;html=1;points=[];align=center;fontSize=12;image=img/lib/mscae/Docker.svg;" vertex="1" parent="1">
          <mxGeometry x="385.53" y="320" width="71.95" height="59" as="geometry" />
        </mxCell>
        <mxCell id="Q0ojlO1fTkYzOGZtwpxG-21" style="edgeStyle=orthogonalEdgeStyle;rounded=0;orthogonalLoop=1;jettySize=auto;html=1;" edge="1" parent="1" source="Q0ojlO1fTkYzOGZtwpxG-14">
          <mxGeometry relative="1" as="geometry">
            <mxPoint x="500" y="450" as="targetPoint" />
          </mxGeometry>
        </mxCell>
        <mxCell id="Q0ojlO1fTkYzOGZtwpxG-14" value="" style="shape=image;verticalLabelPosition=bottom;labelBackgroundColor=default;verticalAlign=top;aspect=fixed;imageAspect=0;image=data:image/png,iVBORw0KGgoAAAANSUhEUgAAAXYAAACHCAMAAAA1OYJfAAAAZlBMVEX///8AlogFmIoAkIEAkoMAjn8AkoQAmozR5uOq1M/v+fjl8/HC4NyGxb9is6nO6OWOycIfnpFPraPs+Pdvu7LK5eLb7uyXzce129d/wbn4/fzX7Oql0849ppp5vbVBqJ1YsqhqtaysrqKaAAAJxUlEQVR4nO2c65arqhJGVdB0EnMxbdR4SdLv/5JHKVCBQh3ZnbRjnfr2j73SouIEq4oC9DwSiUQikUgkEolEIpFIJBKJRCKRSCQSiUQikUgkEolEIpFIJBKJRCKRSCQSiUQikUgkEon0jyqrb5eEM8Y3j3td/XVt/j9U3Tac+74ftGr/x/kmPf11nf55FQ8OxAe16JvtX9frHSpb/XUdhE4NN5hL8jyJZ0/e3w4u3bIPVF6pEHe8Oo9XxTk9Xppk077L/ia5/Jzjb6TYYeYyv6YyZWZHH/7FnruZ079C7lI432hL6pfF+XO+GIu6WyaOo7swZJxH/qCIszDJ92ZBX1T8/a95lXCzkz9GzeBvZlr+i/kusV/A/p34nEXhbLmaT95yF6E15PxovJHiZeBvx17Y9sWPxw0xV4c3Y98LnPPYE3nPB37Ygb0lzA5awc9g35oGJgh4Xun9n+VTV5jA/htGZh8twl6oWoR45Kuwt5YoijpzNOoczdjDfgT7ltl+1C9PhtmZ5C6xJ4jm7NMSLcSuOrsfPdHjEvvjmKb3++2eHpsgVC9AlIy4fwL7FYlgeO6Z2ANeuK8B2PleBGaGfqGKy7Bfh1eOWV6yE2Bno35QZnkiz+LP4c8fwL4zY3XhQksbe0fVpR77e7QM+2UwGvyGFZDYDau3laeFQ7f6APYHEq23nd3GHviuwGwd2DNRh0RGM1jIi2Pv4iQwkf1f3o+9tuh2nd3DsAf87LrKGrDfu0K89gR2jnkiB3ZvL7t7b33ejn0XYJ299lDsge/iuhj7AmOPlFiCvWSyl59F4Q1SxIXdyyPdMr0d+yFC4AbdERR76rjMAuzlaZs+22H5ph2T3wuc/W6bXtoSSfNM6+uoCGBnu++RzHNzLslBkI8NF5zYd9Bkjfr9buw7hG0A98OwBy6ws9i/mm5crnxeOyT/sVM11bMtIwvwtkjT8wHsfjgSNxsu6SOYo7A2F+RpXdi9Boy7uua7sedYlwbXgmM/4NeZxR6Hvi5ujQMOzBhEDqHF3h5eBgb2uKsBxOsnUZnQblc39p9I88Pvxp5glh1uh2IH+2NrFntmYm+56E14tAa6UQ9uAXYRPUqiouNHd6sSbuwpvGXKcr0Ze2aPT/swEcUecHzMOW/bO+wRZ52UqdFSfDc1amGtBYEyQxPPY8/EReUZOdzB8h8T2KNPYsdsjBqM4th9dByyAHsQ+pdbHV+v1+LQDwwHvwiGwWfJ+Zpl2Sk+XFg4WGcbe2RAhehR2i3wkKw26+DG/tCb8s3Yn8gAVbnzU//So4d1zWPX5mULyW4wM0fRQaNR/mG3HR5bRjKeM+dQwumqGYVTtavqxg7N+qFIptwg2Rj15KeNSmbp3NEZD4kdm6lBBUHeyIxA73dlfWbjdjHAj47qJ2Rn2JdRyokdUpe8D4/fi/0bST3aCYBUw87RnKrEXpwsOW69BTDKaWqm2dYs9sbgGegYpZzYITvA+lZ/L/YrMv636mTk3fEeKRO/4DLH4q57iydj6skqyKe4Cs9hP4XG6eBUmeFUXdiP0sn3xd+LvbCzXbbpNuw/txxVJ/c0h+vedzGoVMYdsNuxh9Qc9lS7mKeMmFlXHPu3zFyOzn8v9q2F3Y4PM6PMb2EXiUKuYmvg+qptL8WdtPERoDQ6EYa9uvkqTBoa/cPYkUlIM9hBU3svYIdR5Y/6CYUjRyg0gx0chcYYnKQxuQfYo7rq9PUV1+efYXopHLmhD2Nnlge0BlSTvZ2Fppjr3iLYGGKPGzw9r1E7M4O9sS1KiTlVOakX9Y5ntHhDc2qfte2+nT46miHmFPao2lkalyr3RX24p7e6yEzs3/LpWZIjEeo09gr8p37eXc+yCDlXDrS31d6Lz0Yy3O7stvWfiGSm4/brz0ZkIXm3JsiHvEmP3StU0obzoz0PMYn9JtyE0WUqcT2moXNh5/ysv2Qfjdv9o1XC6uzTcfvEKDVOQm497wh7y10dj1hgdPlp7OAoze4Asbhm8BHsXYL5YVm2j45S+/UWGxVgVHZgPzlKdWO/2xlIA7uXNYNf5tF9/OZMYhfO2R5q1RAcjcMb3ba3r96meZ5j5IE+m5PpH1p5Iruzv5iT+VFEIQmpJjwi/f0qmj472XbDkROZxP4UB4PnRRdkt7QJAi2SyfbfO9c44Q8ykMEwd2db9hczkDlQj8LkUBfXuI3cIK6OTLN2SgfwYR9dTmLfqXSmIXWZcVFnKszQH+TbR9iRBOVL+XZJhj1Hb/yJYdhbw9evF/JZz30Ke267jLHGkNeCHZ1d6rEjjYJOyHtz2IGMPiF4dWBvVSjw/fLJKezNJHXtFqvBjlsZid227C/OpV6QCG8Ce79guj9lYsWvzOZgK+vlCGxwmavBjq4ckNgRy/7iygHINuoR3iR2bw/uPZTIJHbMA4qg3U/OiGCmbuSaV4MdXScjsSOd/cV1MpAf0Q9OY5dzW4oQjGHR9aSQBECXq0GGbBR7rQf7DplgArpYZ39xVdgL2OWyF/mGQIbFzhipoJ3h+6NgGcZwcD3Y8TWQHXYsjHlxDaQVUnjz2J98/ORIsgsEs6aO+RFok8EfrQi7d8FtCRbG4EOlTtPYAZq+bmUOe6P5gyc+J+2VYvCLJ6NbgWfuo681YUfWt3fYkQHqy+vbwe1p43QTuzlCr/R8OYQ2Vt5F/t2VpocprGEfwZqwI7s5WuyIZV+0mwOVWvsRm38bsDeX7ThOOSV6P93LK/RViB/C0EMGAFnuKB9NXxGwKuzIJFOKdPYFe5ecr0MjNy4mt+JUZdXpFG+FUe6xl1HE+OUcX7uj8fkhg/FhlHBRV7jndX44bphYfLRHsruaNnCWbNF1Ybd26vn3vdXZl+zUc2LP+kyYyPx1yTDISinswqZwtfAAyaf0ayh51P0nV5mewXq5Nysf+LhdVobdi3U7499So7Mv25fqNv791kVdPfYaSaxE/tgZ5GbmuMv0mnMllqC91Wh3bdiNXdh+Y1qdZbuwpxZa+1jGqif2YzcLe+hXOxhFwkwt/prCCBkbOdBaHXavTMPxZncd+pJvDoiJg4nZpTIPwmFbAW9tOQvDjRoIZIdNOErWch4mlgO/JqGacu72HNSld+zuGk7urcmhYnCfb/gxjz0SF0ZnjX9b/+kLGztYeTe9LanKYYtM8jimt7y46o20FxtoOuuRXNIt2oCn87HbhdNtwhH9AG46+QWPEsrIQBR+zPUhVW7xis7/pjV8T2Y133n5pKpbYnw96U5fT/qIsu3tkvj0rTASiUQikUgkEolEIpFIJBKJRCKRSCQSiUQikUgkEolEIpFIJBKJRCKRSCQSiUQikUgkEon0r+h/ME+DMh4xOlUAAAAASUVORK5CYII=;" vertex="1" parent="1">
          <mxGeometry x="317" y="580" width="193.93" height="70" as="geometry" />
        </mxCell>
        <mxCell id="Q0ojlO1fTkYzOGZtwpxG-22" style="edgeStyle=orthogonalEdgeStyle;rounded=0;orthogonalLoop=1;jettySize=auto;html=1;entryX=0.5;entryY=1;entryDx=0;entryDy=0;" edge="1" parent="1" source="Q0ojlO1fTkYzOGZtwpxG-16" target="Q0ojlO1fTkYzOGZtwpxG-14">
          <mxGeometry relative="1" as="geometry" />
        </mxCell>
        <mxCell id="Q0ojlO1fTkYzOGZtwpxG-16" value="" style="shape=image;verticalLabelPosition=bottom;labelBackgroundColor=default;verticalAlign=top;aspect=fixed;imageAspect=0;image=data:image/png,iVBORw0KGgoAAAANSUhEUgAAAWEAAACPCAMAAAAcGJqjAAAAyVBMVEX///8TB1QAAEgAAE4RA1MAAEmxrsMAAEsAAFO8usv19PcAAE0HAFD/ygDnBIjV0+BjX4cQAFMAAEFqZY2Sjqvu7fIAAEQeFlhIQXfNy9l8eJoIAFXl4+xuapGhnrXmAIG4tsT/4o3/2F3/3XUzLWTrO573t9j+9vr2rNNua4opIGLe3eZUUHhcV4Gsqb5GQXCGg6EcElovKGQ/OG+Yla88N2oZEVbEwtFQSnt5d5P/6qowKmP/11Z2cpb/5pmIhp8AADr84vD1p9HTtONsAAALYUlEQVR4nO2cfX/iuBHHsWwjsNSCATvhIXTvjl67PAUCOdhLub32/b+o2pZGtiUTA4k2n6bz+2sNWj18JY9GoyGNBgqFQqFQKBQKhUKhUCgUCoVCoVAoFAqFQqFQqM+mSOmje/JJFYxbYyHa/ui+fE4FrVCKIGErClqeI4SE7QgJ2xYSfquGX0DDyu+R8Fu1iolQb1X5PRJ+q7quBOj2K79Hwm8VErYtJGxbSNi2kLBtIWHbQsK2hYRt61MTjr5KbT6wE5+a8MRlbiq6+8BOfG7C4zDrOr//wE4gYdtCwraFhG0LCdsWEn5nHboPUl3xgU542IcCD0H6jISvVLPnSvXEBzrhNhRgLhK+RU3iADDxgUEYCngtJHyLDMKrXvmeDgm/UQbhaCKz0iYiL+29CAfD6cNquTpNO68UWqxPSZn+fhhcWOtw310tu6Mvi+qvo8Omv0y+X8vvzxMe7rPerV/rXarDprt8fH5c9gfDC/P2DMK6biXcYXepfptlT4tTSKnrcpdROt+f4beeUZ+5nLvU512RSzAKs1rcpigx4NljKAI30chJKk3KM8IeDxVd6Lokq4/5bD5NGz1DONp4vuidT8ebSfbZ/LesKVLs62TjZBVy0cdj8zUAIHuE4yy5jXvpCPo9FkI7XujTdVVDLuFQtRO6vVU60q9MpMgBYZo9sm/pwzQuVMqN5IPJseeq7x3up7NUTXgQ00LvWJzOXxDyrKlegfC+MIq0j5zQTf1CtkeYyG4kb+CWOSWF8YNRfhSH5UJuK6l/JfZdXxEWX31NZu1IvFJ5WkZ84G65vrTRKsLRPSkXdPzZpBFxUbJA+CH2tIKOF48+nLDHGm3G9Z45/lEr3teHmSAh68aRVxHmq0b0xPTyfnG0bT/Uv3f81cIzCFdU5LjbxcT1NMKbvIc5aVJhnH40YX4Qr2DIE0OXd01bcUXAYeJ8Z//Fi5v31YTvG0/aCs2K53lgB5IDzlrOHtnLnaMRDgoVeaogn7e5RvggV3DICGXU97PBhHxyPeHffwL9/h6EHWeb9NlzyXzVXT2z3OCRQaHwNFY4GH1JSr5Q5qVDvvOqCIe7U/oPz6UxIbltdNWLEbXyD4lz7HYfW346V/BpTnilVnBI+XO3u9ySFDmHkorwTsw1b40Ow05n2Ow/UxryWS1gk/C//gL6+X0IJ30N/ZPwvxaDMSwZj+Qe1kQNiLujTloy6GxoMiRPtqURTsql7OjDdNFpb1pqFcawonJu8aqdbUaT6Qz+b5FwU01t4m1k/zs6rNL1D4MEwpOeHEzuzi0G894Ft1EG4Z/fm3AyHp6/vtE9DDRfcY0TAHHnOfbFPH9/DcKpTejLfTzaQUE6FZ8MgVtIpqq+4FToERAew9SSbr6lNQs2HAh/IaUWZJWDejP8IwiHrZJLo9ZXD5bDAoryp6L3GbyoHdIkHLLc4wvmYXnS5P7oeLREIN+rgPDUh7kp+QSd3GsAwlN6wZgrZZ+w55cTkRUPdpKfALfQLe8bC+XPGoQ9UvT21xJUOBb/j4Fx2Zf7dITFDoSf5VRwzbWZKipAeC1aZvXemS77hI1OtYHHXPb+ToIkU62kAmoQLlc6kRu/x7Ia97IUf9HqAxcMCC/gdYr1Uze8BYpw05ct6H2slXXCHjNiBrCl+8JMLHqS+FY/TQdgTw3CcbnoS1hsaynxEONU++CWCIORcI1kdDVqIAym3aNV5/PXZJ2w/gI28jUmtw25PHKrkavvVhPW3wtYcjSds2gMvI36DtApQRiAmyOJwJQpb01ZLE7Ianom0lQl64TpwPgKxukKpBt2tj5p/QzCvrY6IahNU5M/ic+tzMakfKbbwWI3Q1HyuJ4T3sOmmNZM4+2o+mcupqz7wxXnykiaBbdbHIzHzMjhkFQT1psGdy/bVGEC2XezV3JrE4QDudjDJ7MgTLsiHNyVzv7J0W5XFb8yZRD+4xfQH9lzO5Y/AeX8JsJ+xVzL5cAfsyd5MvZa5gkUlmMd4VGRMAyJ7o36wJwIwpHcICsMGXhnhbhERw+vcDKriyY3GpfEJe5mUvN3IwwRrllW4yuEgwvX8MWE5ftST1ieMIqxtY6jx4h47wL3uJawMehrCVdsvbIK/pw9SS/V4+b2Ed2yhtuvEF5WWYmqOyXYfovx4ahLtHiTd8EJxDph8sX8Ttphvsye1DZlvnOLWwgPX7HDjyXCW2mH52bBvWElUg1XPb8YIbwkuGadMDODIx3Y7MVt9uC8L9G8xUqA8eamLxHdlVbt43lfoq/7ElDDujtnhXhehYt5ZgzWCMvtrCjYRaQjp/xh80SqyF1DOArP+sMd2GMF4a/gDxuWLJjp/nBBk/boCeLP8hj5iirumkHVV1BXn+lcw7wqN1RsgupM92R0FqKaVxHOz3RGB8EHk4TBFLjGpRZYmkrCKYWmIxuJ6/yJiowU+SdQ3pi3dj4uAb0PHTmHEEI0TrlrqOM6whuIS+ivD2xtQBiWtEP01aTycs4QThayNOK1e10FYen/MkH4178r/SPr5dXRS6LNMixhdeaClRU65eEoIFcS7lCvupiKQ4P3APFRpi3igwrMnyUMvb6FsHyWa/jXv/0VdCNhfldaISMVvTnoRVlpbwrym4rrCKs5DMclC7VW3IBwHrwrhczyOxdFODIGK03MLVbivQmXbi7ymwaen1WX6pJilS+ZaJlfaFxJWA2Ke4U9bG/ecUSw2r1i+GS4zU9vQPjw50o7OonDi0ev3uksEHY4h8yNw5PC1ssHr/YVh83BFjfHBe/+SsINFUMIfWi5s/Q9df2mzhgbsMSef5SLMchuCHXCA+r6x2KrazE50qf/UMJheuvNevP+fvrQIqrztOhIqoE6IXGTgvsuy9whvr2NcEdlq3gsvv8+nY62cXaFLBHnp7gn1SEet0bT6ff7Hsuu6TXCieHxOCGn9TAKgmDShHwYUhv+sU44fArFZLuMFrKc2GPp7drlCzZMCjJxGRHvq/MlagkXroGSlhml4ojAlvJ0kxNe5CY3aTkpyMW/BmEpXyIQPrbn+qRHWiSGlcLrf5hnnbB7Wuv5UulYn8r+UTSvyjDZwKnrasLFDJ280Vm0ViktoENFclBImlrOz7BYnVcoWB9ds0/4odGMtbhfSHb6/hDtfC0rjMf7ZDu5lXBj0zMaTV4bGTIrxnqGxDVabqurP0m4M66YCIf3Lsi+/BGEG4sdKQw3ZK2KqFdyTmCFkXIyS2l9db1Uee6lJ54NwuLzYqj08FSEElKeegsHkpVzi9G0ycovTgYnu0VmFrKSyh+ezolbhhz6d5fcc1xAWOlmwkkzR+K7ab4oZ2Q8qo5HLfoulPHJo9hBTqyVShH2W+JZJ0zl58UhB/u7mKVmNrGvsSPSgg8kK+eWzWf7MaaZPU5LPoq2xjwrWThxHB44YXCrzVm8PZcHXVYt4X//558g0e+bCKdpTaf77Xh+3LTPp9xG0/58PN7uvk1hDgKZkB+UHyNtbEH1n5MNDt92Y+JvC0n1Z/7ubGewdGiP3T2oO86qglF7cGzFvTjukdm39oV5+rWEdd1K+PMomOgT/KqQsG0hYdtCwraFhG2rlnB0GIKyZyR8pep/dfun/I1oTG7Kl0DCtYTfmFWFhHXCq5gKxSKrzCDMGPyYHwlfIoNwewoSAA3C6u9NdF89lSNhqat/T3epkLAUErYte4RlVqx+Uf5/J3uEx/NM29rErk8ua4QbAegdevm/LHuEUUJI2LaQsG0hYdtCwraFhG0LCdsWErYtJGxbSNi2kLBt1RJuwj0dqfhdH6petYT1u2bUlbr6N6GoK4WEbQsJ21aTyJ+AhkjYjppU/ox5TD+6K59UKnvcSAtHoVAoFAqFQqFQKBQKhUKhUCgUCoVCoVAoFAqF+hz6L2JcBXZHnfn1AAAAAElFTkSuQmCC;" vertex="1" parent="1">
          <mxGeometry x="339" y="740" width="148.11" height="60" as="geometry" />
        </mxCell>
        <mxCell id="Q0ojlO1fTkYzOGZtwpxG-17" value="" style="shape=image;verticalLabelPosition=bottom;labelBackgroundColor=default;verticalAlign=top;aspect=fixed;imageAspect=0;image=data:image/png,iVBORw0KGgoAAAANSUhEUgAAAS4AAACnCAMAAACYVkHVAAAAolBMVEX///8A2P////4J2f8A1v8A0/sA0/kA1foA1P0A1Pj9///k/v30///5//8I2v4A0vnu//9N3vmI5vdY4Pbh//7Y+/3K9frq/v5u4/d+5fnF9fum6/ir8PqV6/m08PrQ+fzj9/sn2Pad7fl+5/c33fq/9vzG9/pl4vdW3/li4fWo8fkoz+9E2PeR6Pq69/x03vF06vqH4PNP0u7S8fWA7vux6PObefI6AAAVHElEQVR4nO1dDYOaSNKmm6YREBBnEGRAA+pgsib77uX2//+1q6puEAGdMXfvJBt5spmMiNj9UF3fzRrGhAkTJkyYMGHChAkTJkyYMGHChAkTJkyYMGHChAkTJkyYMGHChAkTJkyYMGHChAkfCQ5/9H+3z+PD3x4PvOWJd36/ch5vaX1YxrjhZrvPUVQvD8kbNCSb9bE8lXWVPC5dxqq0GEHK48G9dhY3slpKoc508o8c4C8EbuQhM03GTOLBKvP5UHBckMBDpEnFM00rdTm/Su1vCqDByC1miqAlgs3KL+7lmkRWDnvJWECUkoCZs/XPGvTPA6jvZ4kkyWNaR45gAb6w9vGFoeTGPLUUm7PyuCtSR+BZ2SOqrxpZiDwiJUsdfGUyWfjdcw6lMEGmhKyzOb72dxYs3+jnDPgnghvPoLhYOW8OLCqHVqXYx9oX40gOkGgKZ+m1H0xBvqzN44lXhQbxtXNgXoTKSh6IK9dITgKXqPU56Zzl4UnHjx7sz8cR9Py+8xoEJo5mzAxYWJApiEu0BMLJ4L2OJayBQWfx4cP9ueBzWHuiOr9GgrjxhdQ/+grGN1qcs7rPzMFCZf+xo/3p4LEF1m51qYNQwEpU+OLog0+Gmv+LPn4+ZeEAoZXxYNgIwZxkqLLnR4F8kbPFcCH2PFJu7EEs0w8a5S+DAlhx/DELt7a0ry9Oz8jWBV/wgRTeejhdv4NJ/zE8zDk3qlC5+ZEKivp0LdFde7QoKAVGTmNvAF87Ac6WGSRjbysPpHxAutgIXegyHGx08ANRDxQX4QXc/NIfeeN3BmqgEbpcg29DU2AwbYrdaG7rBfz6h6NrB4SM6C6DJw7qrdLGXM2ov1CJB1yMS6BjjK45+gmsXBQWxj8HY5hl/Ypa79HoeoFJO5f5QLSKxhFTNCU4ZCn6X443SOJz1HoPl5PYABvhMPFeoNaSWwyKyF8t/YHj/wRn1B830F8DMSw2KzZ64nVAlyvMKX8zLzGfcxwwiocfLqGahCwQm+YVVz88iQpeJSSAUYkxdnVZL8PY3BTviRmHVpXqc+4/slbpg5CIguak8s2gvP3IDGih6Ql9mwUskJ6aplZiPA5NU25uXFmBG59WCtmqRbzoVjf/QeDGsauC1AzWqLiCbzDD1wwnua0xh6Myru0cNyBzdvyOL1irUpvAP/irEMJ29rvtP5OuJRYNtT/ge1m+TCMJYTWsNEsICXMTM4GpZ1D36To/fGryXuiwOfOrFz5jjR/uA6iO3ub61wLd3gOaRs/wsiqNHGmhEDBhBm0ZjUpDSB+JiAjlqS4yzzdOGGGr1XkbaypLdhHQS6zsfrT+cn3Af/WdHspSdAI5onwNUiVIukx2hmnSnFvSpINrWCyVj3YbSrpYF8QXGJPdR3u5tVOWf4xk994DF8XL+8JMfftRrijBZUKwKKzwDFiWLX/wZqBruCz13v4WRdf+pYNdJJW4gY35WESMltIPIskjKSgHSFSYQoY2UiGXm0MWPzeIV4dDjrlmMwgtvUpN4jaMije/fI2176fLY89rieJlyucfHfoPgUdwjzBCue9TtIb8zZH6Q9TUhSyjP1+yT/8nruSUNzO0jqvV339FpbRwQRHLQh7zReOHjAKlq08XN1YOydcHp2MjvEV3Shf5V/OilK1mguDv8Ey5mK0q0o70lGC1G7WVQQZ0pxtQ0CYIZ5kY4zkxxBhd6LeBmxuYMv5QfwKkK7ibLiCrKoVuDQlL7BMpKSPIfbR31mZEf3O+wIyO9JRyB1kz7VIKtY6FU8yvWrkrdBkF6cvlh/bVgXTdT5excbSNC/d/fTcqsISh6iEpUOIGU1Mf4hurKVy7WMxle997iULlhM6c6pqBHqfLMOY2vvGx2f676UJjeFT6Wjhr9BQ5RohoozimBMVZ/TbhDlX+1ZcxZuV4AL0PEAy8WOFIWs+ijI1RSblGl3FE5dUs/DYm8pNtlsULd/RaKk5beCt1CjdUFbl3CsBN4izbJv75CFczMAMn6Zz3Nl5Vz4h0ioX+DJrXvY5XgtmIcdfhMCk2So4VIJBypd6c56VUXTvV6Biu0vUXrkY9eGUsuJ+tSylRWE/LeDArOicuwJu24Qyn3K0GZKmrrOAqNhO2XabfdODhb142eb6HcdoV/JLnn95mCr+xonq+cF7mbQMzFinCLUbNwFubfudGXKT/qpcHvx3SGrvmIB53kfFznt7/+0RuxSwdS91fpesr0mU3SwMnDsSDLjaVJyhPh54+5NzdnCTFBeocOqUvXW5e2m0UAROtaGnMHeU00mcxssuv2qaLwc9wKPZ63vmWBKUmNSjaPve4xcrPEFbZ5B0oacNAHjJLLV81S1wSFfWFieMIX1fo4kq67Ea6XCM5KmcMZxVgpDTw+r2jDPA9mrQJ/lwgMePWPYs/Nz6wOg9ilCghus7xKv14s7cWeags9Jec18t3nihczkKVTnbp3IPTxizWTgU7Ls8tE52JNS7my/JjHBG3I+nVq3RhD49pL9rb45BfIp0yAs9OUs3u2HFpuJE5ZEzhFMeWtgrNLgMDbmz1Ocx2HLxIAMJUevpON9EcjjR/U33BxVBFz46XM3U5ugWiOul8M6a00Aw2cV7AxM5QqUL3BF8nX214K+1lYN2lRDFfDxyKK44E98nx2ruG0o0x3P4gsNMVKhs32RxtnNnRby7n8oONAmM/vXxPFovke1GSmDirAVuB6dRwUuKtvp5wwqxcGP7nY318QoFjT/UTIHu7D3mOfTXos/eWu4+SFNgYBRpKo3mSnaNiAa4Ypj9R5mYkAuCcrQb3pkKDa237h8fpgnuE956tuRLmBCfPyq3RNsVucPlgFK9jBn6A+2EfYzVCOOYX2PFpnpvTuOE5SIg8eoa+ivsFOGZlol+jUWuMy1tsceofAU+nX9MxjKWKHFmTMkUbKToJCdTrar/GnjI66kDvIkbROmZv08UXJWZynMxQLkNNorZos7WGkjdTduhP0fg2POB5ha0CgxZHlC2b1icsEnS8jW0Ji5FrX0jFjJ0h34JfKk3dPw/uraRQSMU4hrIjFzkXFC96Z2upM0dzCTVwGfazfpd0cTVVI9mTGlFeKjjOuJIdr+Mjwd8MF31bYoe44o+XXpNZhBFJa3OM3G7SHJ2zVk+L9podN/VNv4uD38RENer9pUSCllOXZzPWQ9q4RjWlCp3FyPdxKoL0iUS6go7MEWHfSpSmINyqI+7epMz/QO2xQHY6FPvJW56jpP/ZXrYk1XR5lYu1dFfMiFGMPdZPw4lJU9fBQHJz0acragZBlDDU6COLH0JOs28cMZtqPiXJp0/6vzgrUAMDW2RCEFv0pqKBPqHGg+stdzBsXK9Pzai36Gb06wcX+d576OIbwZgzzDZw1zVcNALWa3PlLwO6yvbbQXsFVjZWyeEYZAyUF9HF7A6UYwXLpnb1TJfoNRyG8UyKQcu8c6CH2FI0G8Q0dpyZfXYvPnNXzHgAwZCX+zGaa1J8o/Nc8G7OurrL7EgXX8lg3L/CIZfauHbRL20EyhcFOSiaheKiWYT13ZdXnoEJUguWLCbdzUW83XpzlbRDA65zZvDZEi4tV/1rdGd7l3TFIQXGRj+2cGlXgdJdKqrezrrZdbNdpwYZHzhEGYw+WWgHTPYypCugZCI7+9QYWJxWzUC4Byo6iMiY0esWHlqAjWYL4UHE6Ni2Ux4rtAv4QU0X2Ctcmc78lhK/S7rcPU10xDJiUoIFgpxMHPOFZcRfIDZSn8pCVRlaj40KUxZhP7e7PrvSLWdltNy657pIJoHRejHEs6NSYopEY760hQ5t4N6mHijSdjGCCbTBx7nd5HIPXZxiGMyVDhyvpdDhBc4VHaGiq7yE2v5Dnyq12I3oQHTWRjQzWUYqbVRVlR8pUHzVuRh9jQ0eDKRWbbL5B8QIeUmbUcYl7nnDYVIIxJzcQzqP6l10RliQ3qyO35fvQvEydRzcvSg6ZOSrs5QrN5X6SJqih8laZ3EzMwXb45GL/UD0+9KCycjn/mgv/S5aMdTQ07lpOdPx8BhUjZ2jY0uyKZ+KQ3Yoasc25b/t9tocr2KyP286VHc5EhgkoLCckt5hLFuICs0aaEo1DXCpVR4FxUy3D3Ll6Mq4Kcl2L+KnM3AOZtVAX/e8+txCAVlfqGByny794g4aOlKq2tWN1pznJVXzzAu6RpXEma47s6kHi1T6RZpIpZLl/DUMOg1uXimYDvplm+yoJLn+XwV4793QFmMN7J+jNtabITanLwMD1j1vI7AUubwC/e3kVclCJYxIoP2d7FaTNihq6c3K+N2ljYoyDXLdzYwkIWUYMI9jUl8lyf586WALwMypvWYECxROMPiYR7xQUj7uUjPNWTrijvVjRlDP4KHu3c6JmXyzhqYDD2wz0+KLhmLXvfbWVnss/2d04YU2NqVknI1vNFfGbKq15ZhNvYid51n+tTokzSep8VJFi1SvSxpHwH8paS1Zu+FXjsSMhTDP9o7gSVN1UY/OVB0EPRCY9la/1DcwxrSYXhA8wZRP+b9zJNR3b0sqA83KvCEsaprF0UCK7jza/ACNb2UpLU15HFOoRcLnX1QRDu7A6Eh70uVyF8k2w3MGiLvoYBIV1x8zkGD2od+Y7oWBFkv0eCnwvLkJ7t7FiIm4hCpBARBWUawOTlegKkGqlBhf3OV2AhTimLMN1SMdslhAZlKg0oJxWpE33o7To4trLcT2/vkQLaqdcSsJhbGqGfWuj3QFjarHUMpkg2xeF5HJ7qJLRUAbh7ZWs5mTbhYcG+SlqnpVM6aWfyeR0oiXkeOAj+rwcoZKbPEShaoNRZS5248WNPqLkeu4qJO64CubikI3+nl4jF1UfSe0sxg5vTKDmy16P1TFxg3EtrbSlqzRxTqpqbqqlKhjkc5f+LGQOluGEoAle1ZKobw14RT+1Xs6SA9yPqdMixO31waH0MRcxvmRMfQvyZoWOKWZ/LN2wB+xbZ5jehXhYwqNd84B78doL4rrw/GMWwI4jmTtdB33J0/V0UDkhdozzJuRch3L1azpMHLnqwL3C6lIEGS0uLXJeCybekBTiMuxmVeOB2zaZOo2ko239ZwP9JV+a+lykRUvvDCp3yyVHjyfBAPPTotWJZJ0PRutNLwXQMCiKmklEWsidKI/i7+/zzENLT63p50/Af48BFDfv78s6xKbDLEkhZ8Oo/z2juwhXbxxORurwg1S/8zZGG3YTatrLw/tINZaMxkd+VoHF3S5R7yH9teueGUOVoL0SwzB7IyS0mMZqFt8oZFcO5YSES0nEKehJpK7b5vDKvYShBevDptN5VCfHBAl2rgbVF75NVaplXvoMqjIggm2rZYkkBNKr9ppW0eDoGdn09LRF8f40LSXZ70KgQQJacdhgzgJtUPUJvjnS9RubVa7VmPB1fLpLvnSSsnP0jaQDsymLQ6c09nMQoTwBzDD7kFmtjzpJ+Ycz9rnBl3miHQZ+czUDSX6s1uHVrdTxGQx53ArKUI8+zVr9NdE2siye1Ax5IXVVWVG0z7m8WKeZMtSUAJEf4bSkKa9Sxar+gd3f6EbAdY1FOeYum0nVJXMQOUBGjJRCmHpBtrHfgOcXynL0upjxdkYqqKryewyOh33Nm2mNMOilSY+39M4nPQl22Yv63JmhhhimxdOyqtaBYGQ0pGqns3K50Z5rahOzmxbUnT8A3RheC29+epljbVjtdRMTUzT/6zq8OiKWjCKz8sNSABmeu33NoqP0EVrC1OlDRtGUiuKmhQiThQDU21wYKlFOrcoJbHpZBQOdMsm6FUiheyc4ZBPi7Mqe6JcJR3/sW33ayCl1Esi2W6qdb2Hm4KPbJG0HGczGdr0aKUyXb8c4sZq4t4r+/ubl+fwBUDzSNG/ohrJOWgBi7gppck0XaDZypdOGYd8YOw/o/Q1pQcX1ARz6YyhV1nKc/ZHOpXRUeuLkzBVB0Y4vqn1LURM9Ilektf/bfWqEf+bduu1okR6z8Oc/dubXGCRFVVRjJzoV1UFb33qPNEQVstyb0sUYWe/zEb6UzD5DEtJOk/FM1qDouheWytkN1uXsBLhMmWdzw3ePiMQlXUBa8gOnTr7kaZ+DGfYYCcUtpgw7b+jzy0pNrq8OjYtXcSXd+KqpvWTeBVjI9uV6czj1ffmbaX5+ufh67m3+k5NdcMvhut/8m+N4DrI0Zv1HsTF6QkkqgjocrXNeFb0zsHE/Dseu6GnM5g51wUMcDf7F9afuHbvz44E777uXaMTGwy++M1BX8fKYgPBAfsC7nEQVmo+EWNjPaQpe/cjlkbuI32jC+gf59dnSh8h/inOcTvFkf73NSWlka/W7/yQH8FzipUHQ65mqGspGZJi372z6I0LO5ff9WCEN4c1uPCd/va1Y/8vPcLFladBtFuwKwusMu6n7a8ZbAwo3+NJ/E7YgWEc2+nvR2rvOnWHz5Qx7sLFtP/jPcDrylNKXCxTwSIMsCvWXrcF5hacHuD1cHQd+35ei9hp2jiPSsN2+eJUz246nB4Hx2HJEIHa9lXFJCwaS/25YD0fT7p4Pb4YiaAKc1/MfubuGJ+PqLvoWSN/DF09fK2Ce8b2Y+bvQS0jeU9uXy/hy1zqjATu9hnxbr6C6dw/2jNwqKNw4KZyirNN1T1uYpPA0B/8PNIp+LsDG99YkwNu4OKTGmfUH+59oyfqWYPdURw7BcWjPdQFK7H9jATI1oqq+OKU4GYXdCdk3YuC+FaqnSIPhifcyHl+SVnLP6lENKupqveMmxyZqtI0ETBXj5X78U3z/1BwfMibab3qgihlRTaqAmkVOnhfRDN6jP1TW8/kqq1t1AP5zUG7f9AhUEbO36gnywrqATNop4hLfYFM2Gu9IZZTCI47Zx/MMgIZ2LsuTtRZ4K+WjnqMv5UmOpVC0WLmUPOqCI8bejgSPu0fhGvEff3NoRswWRil9ZNj6QYR59DmQRX8XagKa1a4r9dPErfNWq83rvvbgnbwtyVEahBZjsQ22d5i+rEvmrjR5rffG2ToNlTCMilCbB6iMTjPcLOj1GVHPNFa97MUDwGc8PYkBW0ukGGUn7e0d+CSp79NHf3/CVIbtMdS4b85FDOrZR1F9Tr3ejrr4jyO7apFHe2P680oqY+De+b+eAbxCt7RIfIRw/jlQc/lfF/Bij+ihv+vMLE1YcKECRMmTJgwYcKECRMmTJgwYcKECRMmTJgwYcKECRMmTJgwYcKECRMmTPg98B9O9RDtaPK4wwAAAABJRU5ErkJggg==;" vertex="1" parent="1">
          <mxGeometry x="40" y="420" width="143.23" height="79.2" as="geometry" />
        </mxCell>
        <mxCell id="Q0ojlO1fTkYzOGZtwpxG-24" style="edgeStyle=orthogonalEdgeStyle;rounded=0;orthogonalLoop=1;jettySize=auto;html=1;" edge="1" parent="1" source="Q0ojlO1fTkYzOGZtwpxG-18">
          <mxGeometry relative="1" as="geometry">
            <mxPoint x="410" y="255" as="targetPoint" />
          </mxGeometry>
        </mxCell>
        <mxCell id="Q0ojlO1fTkYzOGZtwpxG-18" value="" style="shape=image;verticalLabelPosition=bottom;labelBackgroundColor=default;verticalAlign=top;aspect=fixed;imageAspect=0;image=data:image/png,iVBORw0KGgoAAAANSUhEUgAAAOEAAADhCAMAAAAJbSJIAAAAkFBMVEX///8AAAD8/Pz6+vr39/cyMjIEBATp6enl5eX09PTh4eHu7u6Tk5Ps7Ozn5+eEhISZmZmfn5+mpqZsbGzT09NWVlYrKytxcXF+fn4dHR3IyMiurq6NjY0mJiZhYWE7OzsVFRUPDw+7u7u+vr7Q0NBKSkpYWFh4eHhFRUVvb28/Pz9ISEhmZmarq6tdXmAvLzFvf2caAAAJQklEQVR4nO2ceXuiMBDGkwAihyCIyiEiHtXt1vb7f7tNwhWwrbgt1fSZ3x9dZcHO20lmckxECAAAAAAAAAAAAAAAAAAAAAAAAAAAAAAAAAAAAAAAAAAAAAAAAAAAAACAR4fc24DBIU5AMY172/HtEOo7K56uI1wy+utuxwQR5dc41UrWOe6SrYJ72/UdMCeZx1FX3ai4ctrK70RC9V14T2BBNRK5Zdqf6WOunJv3NvG/4Q00+0xgiU+Iem9j/w+CkrrHfcqLIWs7pS20hz56Sza+t6n/AQ0gYY8WWrIw5RvvELTs48DKjdHk3gbfzg0e5F7UZUsa/m0CR3gumcKgMj3P0o9EsUa80RbVG/veNt+ComZVJ3QRGvtaFVQ7PfMYqMis38UyjW7sOg9ys5Ukf8eJyzGbdihZ1U4zafK+IvgFl1ar7uZvmMSmZRiGs9/a6+hQzSyW9b3StFOCXprOVl5SkNW+yVCqV9Pmz9G551EhTZjBOC2vdTsYaZY0hKi7+kk7v0LT7ioffobgw8iQY2hjiBHzevQQhwbJD5j3DSRiwNxfvf1ZyCEHOXz4JCq8Pr9di7c7P2DflzGaTsgSwFWnWKJCCZopQXvB4EztMUwRW/WfHzDxy9hCv0rQ9SVRRRGWOhY/YeFXEfrVps84jIj5AuuD2/dVCDo05r70e0IYIWAJVomNTWOu1/MRIYFuh7XuGyBiaOwbGYUp5HlQ674DIswrejtEax6RYGgqJou+PqwVjtiM+dGJBYV+v0cUoeuGw1r3HYiBcdrvEbHrSuBD0dxZnwfa2UKCeb6osOcIRRy2STAwVcXtpj77EQSJO4zx4AZ+FYJeb0wXxBBXVGXYTWzm7CP82mdGuxUE9hrJ3putoLDHFL+V7/HT4OZ9HeJgQaKmXH3AE1fCe45k78yz4BM8I+RjkYTOj8U2Kkc3bC0PUvc8fTLjI92bNTlWosyW0Tj/ZLoQzHHrZgnyPacw+8kOyzSQ+U7RImv4GzX+gzvIsZ9P0I5bS/1hsMzBdqHy9TSeiAqNYBtqXX39RnkPwYGHx7WF0Koxf9NEHCJely7OMOKiV2WGuGojJAJC9OhC3ggv5YgznLAIMtRkp577iaMVQu+4qNTIdXkEIistBNAhTVB6qzOAi7v6pJhW1JTBhiZD+nLM90sPcVuhc+HD+b2s/U/sop2aLC0Q6526524nzKXYlBEga54mTh/WdHfbaIyuD2EfC6PYF9TqDNAJIxedUKIwU2Jo1IssoCa7ON4lQWePRmyiI3yWUCDtfSexvLTrpJYHt0SVUCHVOBOqoLozPyHIbPbSHjYhXuOm7nJ98z8HR7ogU0NQkF1V6L1TbiMTxMuL3ui+0w/p5ZkcE6aPod6ZFPOIbs1CMY7Zy9oB26jJgW3utrU84dSVZ7Z0BSptbHVqFhSDHWH7FQ5ElY62Gj5e/TUKAQAAbkBRkGLGu3hv8mUl0lnm5T/Yz/cmCmVA7d7PUR9mXEpUrxxnaitmlKW34v3OntoBTwO2bU+7Vk/pxfbRn9WMsZzuHkUgIWazWxspfLk3FCXOcFVpwO7oFt4XSxUii3oCtSUPMfgm1lsz3ZuXdSUxIpMg2POlzuWNCjWs6xPdMT22Hf4ICqnP2CQhmr/MF0xJwCYH22Llns+N/tyssHyxx9FDCCzqSBJuy5j2KONE5ZZ7E7zQ53YfVq/Wj1GDsSuWW3hAJKzjqL7Ptj/drytcPUZN4opt0tYZghDV9zzfUPma9tybmlxhUejF1EzI1vM8gz5w9jzqeXZt6map5k7KpNEotOlMn1h7+oE7/odRiJnQh3a7ODbovSb7BIsftCF737bP8TBnow+8dLDeli9KEnS3nKxjnyt8olZ6fHlmrKSF13hhniMszERmsTDTKDziXV1Mxcv9mmM3MSFu8WpHrxtP9dLHAGjFTJ0cKcujjfSceWpZKUwEs9j7ibIoFbJ/dXH5cI7aPpxgbBAjTPbjIMlZIbSHs20QJAv8MmF7jdF5H9MWNGHB7LCN4+Q4TCmxVvyBy7/1Ak2YQsuN2D95OhIVch+StwuF6dHllRpjJCgk5onG4qrZJey1lvP6BhMf+PkNvhbgUsdZeTrk+ba2Qq1QOCb8VLpLDLWjUH9HIXUPf2pbfuCcQTUfm3MZJl4ih1UOsStabqAYz3jf39P/GOPTgAKrVqq2FXayxWuSnJOk6IeXCpnv1lVfox+4oUTPSxZiFYIMM976LhU0xuviV55oRPbKux3qUCPCZx5khhkCsRKLJf1sRz9zhfp7CptY+r5CwpOLVyo0GKg4jkg8Fplyjf4OKy9dlUYG/fg1G9LaLn7mhZqjbL4KhllDZqZtWPDmmfEDhcWiYaHwMtJ0FYofP8XZTmcnn2csbPOCuB3zZfPtKCeWOFbzxWCxlG9MT4vf/GErbTK+o2hcIVEbhWzD9EVopcKnK3nOv1eBK6S/6jidrvk2uY9XukMZm1a5XGd4Ax2oVfmO/MpRDZ8rtASF4UcKaRJT00YhbY0RrsY2LYU62+knpcKyGOwt5l+QUtV+F98rRfi5nGGWWlvfk9D40Gfpz/WCzuxpTDsuHQR5U14ZVGYL1+O1NpNLhRPWCFkz5AozvA8Ch3dQkxU41muPRTVVNoxCRRWrtNK6HwZFhvcu5ocrYftwUmf8UV1Y2+6HB55DnCNXiEf7en98jmfsL2KxK0w1sly8GCSWkiJKlIS0XZXxvxDu8x42rSONhSZlocmm8mH5Pi+/qyVtKaR/qMWB+jtnClkpdZS9rtj036SPadmCZVOFXn1jIXq441HmdK5F0WJu01airMLQ5bE+WS8W8xglYXjcc9tDikr7lvs3Sl896xyuVOSG4Th5WUTasdpuWrWPj5juKT3Yepwgsk3xOnx9ptIyGrz11SlNs5cz/UR/nUVpFg52wq3oBKpRrkOVP9lYXFWrJMx+ChVs7F4xRRuGUj2pIHEvg4UR9n1RRTY6mPxh84U1CvqEUU8mFJV9WcGPLXqQD9/c+nDr/VN94tmsRje/jKzsoOw4zfG+pgzEms8FKZO5VNVu/dnzKpydH47w+iGWGb8ZGlnicin1LVF/z/djdnCC3S54/IPdwKc8xkI/AAAAAAAAAAAAAAAAAAAAAAAAAAAAAAAAAAAAAAAAAAAAAAAAAAAAALT4B0ZfcDXVuJi7AAAAAElFTkSuQmCC;" vertex="1" parent="1">
          <mxGeometry x="60" y="190" width="130" height="130" as="geometry" />
        </mxCell>
        <mxCell id="Q0ojlO1fTkYzOGZtwpxG-25" style="edgeStyle=orthogonalEdgeStyle;rounded=0;orthogonalLoop=1;jettySize=auto;html=1;" edge="1" parent="1" source="Q0ojlO1fTkYzOGZtwpxG-19">
          <mxGeometry relative="1" as="geometry">
            <mxPoint x="200" y="245" as="targetPoint" />
          </mxGeometry>
        </mxCell>
        <mxCell id="Q0ojlO1fTkYzOGZtwpxG-19" value="" style="shape=image;verticalLabelPosition=bottom;labelBackgroundColor=default;verticalAlign=top;aspect=fixed;imageAspect=0;image=data:image/jpeg,/9j/4AAQSkZJRgABAQAAAQABAAD/2wCEAAkGBw8HEBESEA0REA8QEBIVEg0REBUPEBcWFh0WFhgVFxYbHCksGRolHRUVLTIhJykrLjAuGB82Oj8sNygtLysBCgoKDg0OGxAQGTcfHx83Ny0uNzc3LS0rKy4tLTYvLS0vLTctKzc3Ny0tLSstLS8vLSstNS0tLS0tLy0tNzcrLf/AABEIAKgBKwMBIgACEQEDEQH/xAAbAAEAAgMBAQAAAAAAAAAAAAAABQYCBAcBA//EADoQAAEDAgMEBwYFBAMBAAAAAAABAgMEEQUGEhMhMbEzNEFRcnPBByIyYYGCIzVCcbIUU5HRFVJiJP/EABoBAQACAwEAAAAAAAAAAAAAAAAEBQIDBgH/xAAmEQEAAgEDAwQCAwAAAAAAAAAAAQIDBBEzIUFDBRIxcSJRIzLw/9oADAMBAAIRAxEAPwDuIAAAAAAAAAAAAAAAAAAAAAAAAAAAAAAAAAAAAAAAAAAAAAAAAAAAAAAAAAAAAAAAAAAAAAAAAPFUx1AZKYq9E7Sie0PN9TgUjIYEYivj1rK5NTk3qlkTh2cVuUbA8UqMQqnSSzySP2a2c5y7t7fhT9P0IebWVxzttvsmYNHbLETvtEu6opkUXDszzU1kk/Fb3ruf/nt+pacOxiGvT3H+9/0dud/jt+hlh1eLL0ierDNpMuH+0dP2kQYopkSkYAAAAAAAAAAAAAAAAAAAAAAAAAAAAAAAAAAAA+FXVR0jVfJI2NjUur3uRrU/dVPJnYfZVMHPRLb0S/AqWN5xhfR1ElJOm0Ylo3Kzcqo5GqrUdx7TmuD4lPiNVrmmfI/Q6znOXdw+FODfoRM2srT46peHR3yfPRdc9Z5qMIndTwRsa5rWqs7vfX3kvubwT63IjK+YqyVr5H1L3vWTfrsrbWbuRvBE/axV80zOnqXK5yuXSxLrvXciEplTon+Z6IVmbU3t+UTstcGlpT8Zjf8Abz2g4k7E54nOajXNhstuC+87eR+Vemd5a82mWa+lZ5fqphlbp18t3NpptebV91vlupSKW9tfhbQi24bl7zw9IqWmcOzJPSWR34rE7HfF9Hf7LRh2OQV9kR+l/wDbd7rvp3/Q58eE3Dr8uPpPWEHP6fiydY6T/uzqqOMjn2H5gqKKyatoxP0u3r9HFrwrHYsRs1Ltkt0a8fovaW2DWY8vT4lT59Flw9ZjeP2lgATEQAAAAAAAAAAAAAAAAAAAAAAAAAAAAADmntmWzaTuV8u7s3Iw6Wcz9s/w0nil5MI+q4pSNLywqMH5c77v5mnllf8A6E8Ljcg/Lnfd/M08s9YTwu5FB2s6HvVjmTrDvC3kS2U+if5nohE5k6w7wt5IS2U+if5noh5bjgryNHNfSs8v1Uwyv06+W7m0zzX0rPL9VMMr9Ovlu5tPfGeRbQARkgAB6PCYyn1pnhfyIgl8p9aZ4X8jdpuav20arht9L+ADqXKgAAAAAAAAAAAAAAAAAAAAAAAAAAAAAcz9s/w0nil5MOmHM/bP8NJ4peTCPquKUjS8sKjB+XO+7+Zp5Z6wnhdyNyD8ud938zTyz1hPC7kUHazoe9WOZOsO8LeSEtlPon+Z6IROZOsO8LeSEtlPon+Z6IeW44K8jRzX0rPL9VMMr9Ovlu5tM819Kzy/VTDK/Tr5bubT3xnkW0AEZIAAegS+UutM8L+REEvlLrTPC/kbtNzV+2jVcNvpfwAdS5UAAAAAAAAAAAAAAAAAAAAAAAAAAAAADmftn+Gk8UvJh0w5n7Z/hpPFLyYR9VxSkaXlhUYPy533fzNPLPWE8LuRuQflzvu/maeWesJ4Xcig7WdD3qxzJ1h3hbyQlsp9E/zPRCJzJ1h3hbyQlsp9E/zPRDy3HBXkaOa+lZ5fqphlfp18t3NpnmvpWeX6qYZX6dfLdzae+M8i2gAjJAAD0CXyl1pnhfyIgl8pdaZ4X8jdpuav20arht9L+ADqXKgAAAAAAAAAAAAAAAAAAAAAAAAAAAAAcz9s/wANJ4peTDphzP2z/DSeKXkwj6rilI0vLCowflzvu/maeWesJ4Xcjcg/Lnfd/M08s9YTwu5FB2s6HvVjmTrDvC3khLZT6J/meiETmTrDv2byJbKfRP8AM9EFuOCvI0c19Kzy/VTDK/Tr5bubTPNfSs8v1Uwyv06+W7m0eM8i2gAjJAAD0CXyl1pnhfyIgl8p9aZ4X8jdpuav20arht9L+AgOpcqAAAAAAAAAAAAAAAAAAAAAAAAAAAAABUs/5XlzIyLZSMa+FXqjXoul2q36k4cO4toML0i9fbLKl5pb3Q43VZcqsNw6bbRaNle93It7vS1rceKFeywn4/2O9DvldRR18bo5WI+N6WcxeClJT2cspJ0kp51bGqKixSJrVt7fC7tT5L/krM2hmI/j6rTBr4mf5Omzm2ZOsO/ZvJCWyn0T/M9EPhn6hTDq58bdSojI1Rzu26Jc2MqdC7zF5NIGWs1r7Z7LHDeL290fEtDNfSs8v1Uwyv06+W7m0zzX0rPL9VMMqp+O7y3c2mPjZeRbD08PSMkB4e8SXw7Ls9ZZXJs2d7k95f2abMeK+Sdqxu15MtMcb3nZDljyrhszJWyuYrWI12925VunYhP4bgUFBZUZqf8A3Hb1+ncSaIW+m9Pmkxe89YU+q9R99ZpSOksgAWqqAAAAAAAAAAAAAAAAAAAAAAAAAAAAAAAADxT0AaOJYVBijNE8LJW9zkuqfNF4ovzQg8MyRS4a52lZHRq7UkTnXROCWvxVN3aWo8U13w0v1tG7OuW9I/GdnHva1E2Gqga1qNalOlmolk+JxX8q9M7y15tO54nhUGKs0Twtlb/6S6p80Xii/NCpQ+zqOjnWSGdzYnNVFiemtyb0X3XdvDtK/U6S9pma9d1jpdZSsRF+myERL8N69xNYdluersr02TO9ye8v7N/2WvDsHgw/4GXd2vd7zv8APZ9CQRLGOH02I65J3ZZ/VLT0xxsjcNwSCg+Fl3/3Hb3fTu+hJIhkCzpStI2rGyrve153tO8gAM2IAAAAAAAAAAAAAAAAAAAAAAAAAAAAAAAAaWMYlHhEE08i/hwRve63GzUvZPmvqbpTc/VElS+kooYdvJNMk8kG0SK8NMrXqiuXciK9Yk38d4E1lvHExun2qxOge18jJad6oro3sWytcqbl3WW/cqEgytikdpbKxX6UdoR6K7Su9HWReHzKDS1M9BW18dRTf0zcRpJJ4o9s2ZFlhZs5bOREsqsWNbf+VI2LAqVcMwOTYNSWaahSWZt2yvSZipI10ib1a5FtZVtaycAOpU9SypRVZI16ItlVjkel+66dpjHWxTOVjZY3Pb8TGva5yfuiLuKfQwQYLieIpFC2OFMOppXwRNRjVVqzoqoxP1K1qJ87IV+nnjfUYFLFTUNK2aZVjipnI6dInxSXbIqNRFb8N+PvIgHTW4jA52hJ4lfe2zSRuu/dpve/yMpK2KJyMdLG17vhY57Ucv7Iq7ylUVLRYviizNZTRx0Mr2sVrY2Sz1bt0j1VN7kZdUTvc53chpUUWHT0uJvxBIFqEqa1Kh8yN2zGtc7Yo1V3tRI0j027928DoktXHDfXIxmlLrqcjbJwut+y/afSKRsqI5rkc1UujkW6KneipxObZdw7/k6uiSui2srcBp3vjmTWm0SRU1Pau5XJdePBVUsmQom08VXExEbFDiNWyONODW69SNTuRFcu4DOvzLPHWSUlPh61D4YYpXv/AKhkKIkivRERHJv3sU+uI5kdh7KdrqR7q2qVWx0EcjXuu3e5XSbkRjUsqu+faVqviZLjdZrxB9FahpLPjkijV/vTblWRq3t8u82sUqY8KxLDamWdH0rqSelSsc5qs2zlic1z3puRXoxyX3JcCfpsXrFbLtsLkZJGxHMZHPFM2W+7S1926XJ26kRLd58MMzJLNVpSVVEtLM+F00SpM2eN7GqjXJqaiaXIrm7lTtNyozJQ07ZXOq4bQRbSVWvR+hi7kV2m9rrwTivYQOWZY8Yq3V0ssaSvj2VJR7VjpY4L63OeiL0j1RFVP0oiJ3gXUAAAAAAAAAAAAAAAAAAAAAAAAAAAAAAAA+S07Ffr0N16dO00pr03vp1cbX7AAMZ6SOoVqvjY5W6tLnNRyt1JZ1lXhdNy96GP9FFpY3ZM0Rq1WM0N0tVvwq1Le7bstwAAzSmYj1fobrVqNV+lNaom9EV3G29dxrQYNTUy6o6WFjldrVzImNXVv966Jx3rv+agAeNwSka/af0kG01atpsWa9XHVqte9+09nwemqJGyvpoXyttaV0THSJbhZypc9AGx/TM169Ddpp07TSmvTe+nVxtfsPYYGwX0ta3U5XO0oiXcvFy24qveABr1eEU1Y7VLTQyPsia5ImPdZOy6pwM/+Ph2ey2MextbY7Nuztxtota30AA+UODUsEaxMpYWxOW7omxMRi9u9trLwEGC0tM5Hx0kEb23s9kLGOS+5bKibtyqABvgAAAAAAAAAAAAAAA//9k=;" vertex="1" parent="1">
          <mxGeometry x="421.95" y="200" width="160.18" height="90" as="geometry" />
        </mxCell>
        <mxCell id="Q0ojlO1fTkYzOGZtwpxG-20" value="" style="shape=image;verticalLabelPosition=bottom;labelBackgroundColor=default;verticalAlign=top;aspect=fixed;imageAspect=0;image=data:image/png,iVBORw0KGgoAAAANSUhEUgAAAQ0AAAC8CAMAAABVLQteAAAA8FBMVEX////iRCqMkp38bif8oyaJj5qGjZiUmqSmq7OZnqiwtLv0YiiNk578pSbiQij8bCfk5ejCxMvlSSj+9fPs7e65vcP09fa9wMbR1NjJzNGfpK38oRu7vsXw8fLU1trhOBd+hZLhPSH8nibe4OP8hCb8eib8mib8nQD73NbpalXxoZT85eD0s6foX0fhNhL97uv/8+j8jyb8kSb+2rn9rUv+1Kz2ZCfrUyj+4sj4yL7gKADvj3/sgHDvl4nmVTr2vLL50svqdGH0YxP4mln9tV39u3H8pjb+5tL+xIr9ypf8fyb8rlT9tmf9ihP4cw79wZhVvOz4AAAMgUlEQVR4nO1caXvTuBpN0kheahK7dZ3EadK0hgYolLIPDAzMDDvce///v7naF29xaFI7rs4HHmJLtnSi8+roldJOx8DAwMDAYPdwcbFujSdr19gZvHn79tF6Ne6/ffvndtpSP96dDh6vV+P9yaB7uJ3G1I3Dy8Hg8v5aVf4adC/fbKk5NePDSbd78nCdGvfR0Dh9t6321It3p93u6YN1ajxE/A3+aqVUDruDbrd7uc4k8ZjU+LitFtWJN5eoa2tJ5T6pcfp+e22qD1go60kFCwVJ5WR7baoNVCjdwWl1qTwg/LVSKh/JsEdSqWzALliNNkrlz1PWt8pSoULBs8o221UPDgasb5Wl8pjVaKFUPrIvGvXtQ7UaF6ecjfZJhQulW9lcPhL8rbu6aTwO/xqIvl0+qVTlgeCvu+bqpvGQQqk6q0ihrLu6aT7eK2xUk8ojpUbbpPJ4oPTtoMo67G8plDVXN43H/Uula92TCimLJ4pQ2iYVVShIKn+vrvFIq9EuqahCQX3rrp5VNKGglVuLZhWcw1KxOrv3ZKDXqL66aT4easO+yqzyIV1jrZxZs6ELBUtl1ayiCwVLpTWzysVpio2Vs8qTbqZGa6TyKDXs0cBfsWf05jJTo8I8tBtQVhwVpfIuW+Ok2uqm8bg4SQ97LJXDElxkhNIeqbz8Zz+DV68PSvD6VU6Nf+vux2bw6Xwvi+GgBPs55Z/euaq7I5vA1fTO02G2e68zWpDIFh/+6C+f192TTeDltH/nbrZ/+8VkvM6Sca/fn/6quyebwM9pv9+/l6FjWMxGRijDvTP0jH4LpHKF+9E/28vQcVBdKMNnd9Az2iCV50vMxp3zTBcLpZIRyvAuJqM//Vx3X66PT1MyOLKR9FVVoeCgQbHzZxeueE/6P9J0FEklVY4FDTw4dl4qVCgE6dBRMMcepIfGOX/A7kvl11SwkTZhBVJJCQXZLvGEXZeKFAoKHc9SgyNfKnqh4Q+FjOUfdffneng+VelImbBcqehCkRG0DVL5rLKRNmG5UtHm1+HeuVb/y25L5UzrTNqE5UlFK0BtlyKVr3V36FpIsZEyYTlS0YTCbFdr2Pi2TNGhhY4cqahC0YMGjhsv6u7PNfE5TYdmwrJSeaUGjbM0GTu/bns51QPpmRpJM1LRhKJH0P7yW9192QCuXuh0nCuRNCMVRSia7UIDo7/zvpxCDx6aCUtng6VQhnf1gfFz51XC8bxfZMJSUpFCSUXQ5fe6+7BBXH3ShocMHSmpCKHoEXT6ZccteRrfl8rwkCYslQ8UQtFs1/Jza1TC8ccXSYdiwnSpCJIU2zWdvqy77VvAoWI9ZCZMywdyoQx/KCp5sdv+sxCq9RAmLEcoatBohcnIx1fFevBIqkjlgDMks11tMRn5kNaDm7D9jFCk7WqRyciHsB7ChEk29vUIOp22yWTk4+oTp4OZMCkV3Xa1zmTk4zsPpjR07GtCERG0hSYjH9x6UBM21ITCbFc7TUY+mPVgJoxLZSgjaGtNRj5ekmBKTdi+FAqzXS02Gfmg1oNkwoZCKMO9W2Ay8kGtB46kB0wodL+g9SYjH8R6YBO2z4RCgkarMhnr4OrnkpiwIRUKtl3T/q0wGfn4viQmDEtliG3X8tdub6ZdE1/RaLiH59iDvb2z22Qy8nH4a3mGpbK/9+yWmYx8vJyeI6m8enrrTEY+vr74z+uDH7fRZOTj23//uZ0mIx/P/1d3CwwMDAwMDAwMDAwMDAxuGaLQ9/0wqrsZDUA4sT1IYR0lCiPRBGHMPsyOR6PRRK+ZjLLXVmKMHnScXKfBW8TYgRD0OAC0AsFHiAny2AcfAnRTrxvga/aaL3RxpeB6jd4SEkehggJac3bTx7c4AT5EHxy9doCugbXZQE9tJhuB4AJgcD5ceveWseFCJg9oxa5rxx4VDe8gUooUR+vZYGRAJ2CzSRQGMeIDhvT+DAdJ3u62szEhZABvrF2dO/Aor3TL2QipSuJZ6no0yrUdLWfDJSHCqeq4fo+NKJqlX6CwEUVN8XtkwuiBsKRINMbg5TEb1phiQgdUORvI1VkeRnzsK5c5G77rkJujsibcFI4wG7DUSGbnFDoRI/dEvWQZG3Mb8OkbVXClHgkbk8hlEzoq5abFeuOIvJ5iJvKR9RvCoa1iw7d1VwcsMQIwG8B1lMdBz897xg0iwa1ZEcwK2Vg5Nib8ixeWTgYoN21+8bxWMx0jsCpq5LHhORQWbX0hG8eQMEE8nUMJEcxzNpBEPI+pCVj1hlMbZKeINH7fmUeom8jT0Q8heVePL/8oGwDY4xDNOPOYjDl4fI2+XB8ObpFbXuYa65SxM1c+EQKgr3wAsdDGhLJTZyQlQXSVB9rYqo2+jc1fNIoqd49BhbZsFTMSROX3N9bALm5uDYu1ApjhpzOsetcjg+X3OrIRhFDOkwjRAipYsJC2OTZIQTYess6cRvQa4yhhA0g2VDPRg9thgxXMspHojbl53DAbk1I2qGzHeRVvBkVKAWuzUTJN+xM3diwEh8xghWxoQbYOhHoUjQKG442xEQUWIpdZ0l45G1bNbESaPVQANsTG2NPE13A2rAL3tSE2ApZkBD28am86G50YO4CcjmyGjYTabSdIiMWcBaDRcYOmN3JWbZthwyFPl12el88ppPS8Ux/mBSv6jbBBDcRIXhhX8Bt1LupnRMvZbM9G2MDC6HmKuSxngybva13T2/mZwI2w4YKUKytng6xi6lyn8EDXS0eOcjYyu9L5bNjpZWopGyEJG/UmOMiskt1BIGywXIPGBrHPqbBbyoY6NkqjqJb9qAtsC8HRm0FaFiolOBtkGgR62J2UKEWLG6p00myQeF6zUDrcIQEQqMOjV8QGG0vaSnNcFkWlVGY2TLsvGa/m1JrUf7zFZobRc+ek/7NkEhezwbZtR0rKjrDhuTrGYu8lnmOekyMvs04BNhuRCW3D2tuX2wCjAx9Z0NawuWxEzGBDL449+lWO1R0nvvGEU1wxYI/1LPJMbM5VNtCtXozgNSNlzjDKnOwpZoP1nXQfJvoVBSThl+g34ARRoLHR0/ZarCZsPiL42ZNOAIJ8NpBWxOmfFWygO+pZshGWmWAjVQlAuxEjg2Buo5UmYHsciAnLFQuGEN9QLUbi0JSFHBsgA3b6Ax8oA3QcOQmOJHDBpo0En0AE7CZ6YVznAiWLaD6yY5yhit3RXBuzIYZW1g9wUYfthkRhDvgXnbi4pM325/FxVPFCf3xk46wYeuO4ISIxMDAwMDAwMDAwMDAwMNhNOCxV4dn8mGes/qbPgTQZfASVdLfLSlhQ5v8jj/0OzJa5D1rXohegfENz4QCaHUXNhXQDNVYTPQ7bz8eb2SJNzNlwgNwAiCyW7nGBTLdSNkAP8jc07ucpKTjAGgWjIHA9yHY7itiQOwMuK+Eop7ZUNo6DEcUk/w3NhSMOc4wB3XosYMOSu+mCDWCJsgobnp7ulG+YgJ7XnFRoHmRbOwEk33Q+G9B1IZeFYAMGFpNXJTY6IwCblQxNQ2lrCMkWcQEbti+6ItmYjCELJ5XY8JseOZS2zkrZiEXwVNg4RjMGDSeV2Ah3iA30zeGwV8CG1Qn5z+AlG25nzGbZSmwksNZTXquhtNUFpGMFbHjknxktyKOojf8h4aQSGzao9VzTaoi24p/fkf8WsNGLhMPS2Eho7FXZCCYUs+wbaj+gUA4HeO4RQuwhP0q8YtHYiPAWJBk9GhvIfOJPqt/gP2lI1De4cQ8Aq/ZfOZbDoY0HePeYNrWEDRQp8JcrvShmA4UTHAwUNvgZBmrEsUcjbwD8Dc0FclBoYAcesLiiy9hAspin2cAqmqlsZOKGhVQTIB02fpnCu4t6VIUNKosjnY2I/OGOVVEUvWFn2Ig8EeBs9YwJ67Bgg8hipLOBTzSEHWcFG+gNTTjIUw7+5U8gX4Ah4ctddY+t1TgbSCUesvA6G4gJuxOvmmED2HBb3lHmP4sPiYnSamGXBBsRwHY8xcYcwtBe6TeshhxsKoFo65znN0Igh7QN2OknwQYiy5qAFBsonKBF3So2xk335apTjHnPbfGHqFBAYNFEsoG/4gwbIexZYKUXjUGv4VOsbGsCWed8iCaJJIoSF4qjvgob+KBnmg2S8RJsjPjvw8iJVO0NK36lXTe0VYRyrIvl7nhqS2EDn5/OsBF5kg3l4KVf8IamwlqIboaLBft5RBIvCGLRdncBBRv+YkH/UoC3kMuOYLFgWeKFAp+UEv7Fh4vGB1IDAwMDAwMDAwMDAwMDAwMDgzrxf3++C+X39TNrAAAAAElFTkSuQmCC;" vertex="1" parent="1">
          <mxGeometry x="490" y="310" width="143.09" height="100" as="geometry" />
        </mxCell>
        <mxCell id="Q0ojlO1fTkYzOGZtwpxG-27" value="배포" style="rounded=1;whiteSpace=wrap;html=1;" vertex="1" parent="1">
          <mxGeometry x="130" y="349" width="90" height="30" as="geometry" />
        </mxCell>
        <mxCell id="Q0ojlO1fTkYzOGZtwpxG-28" value="배포" style="rounded=1;whiteSpace=wrap;html=1;" vertex="1" parent="1">
          <mxGeometry x="530" y="499.2" width="90" height="30" as="geometry" />
        </mxCell>
        <mxCell id="Q0ojlO1fTkYzOGZtwpxG-29" value="데이터" style="rounded=1;whiteSpace=wrap;html=1;" vertex="1" parent="1">
          <mxGeometry x="430" y="670" width="90" height="30" as="geometry" />
        </mxCell>
        <mxCell id="Q0ojlO1fTkYzOGZtwpxG-30" value="http 통신" style="rounded=1;whiteSpace=wrap;html=1;" vertex="1" parent="1">
          <mxGeometry x="270" y="180" width="90" height="30" as="geometry" />
        </mxCell>
      </root>
    </mxGraphModel>
  </diagram>
</mxfile>
